# xmcd
#
# Track frame offsets:
#	150
#	17100
#	48496
#	73363
#	88505
#	129580
#
# Disc length: 2069 seconds
#
# Revision: 0
# Processed by: cddbd v1.5.2PL0 Copyright (c) Steve Scherf et al.
# Submitted via: EasyCDDAExtractor 15.3.0.1
#
DISCID=51081306
DTITLE=Danni Minogue - You Won't Forget About Me
DYEAR=2004
DGENRE=Pop Dance
TTITLE0=You Won't Forget About Me (Vocal Radio Edit)
TTITLE1=You Won't Forget About Me (LMC Extended Vocal Mix)
TTITLE2=You Won't Forget About Me (Afterlife Lounge Remix)
TTITLE3=Flower Power (Radio Edit)
TTITLE4=You Won't Forget About Me (Original Extended Vocal Mix)
TTITLE5=You Won't Forget About Me (Music Video)
EXTD=
EXTT0=
EXTT1=
EXTT2=
EXTT3=
EXTT4=
EXTT5=
PLAYORDER=
